<svg width="1080" height="644" viewBox="0 0 1080 644" fill="none" xmlns="http://www.w3.org/2000/svg">
    <rect width="1080" height="644" fill="white" />
    <g clip-path="url(#clip0_1100_2)">
        <path
            d="M806.665 514.463H272.305C256.709 514.463 244.061 501.814 244.061 486.218V151.406C244.061 135.809 256.709 123.161 272.305 123.161H806.665C822.263 123.161 834.911 135.809 834.911 151.406V486.218C834.911 501.814 822.263 514.463 806.665 514.463Z"
            fill="white" stroke="#E1E4E5" stroke-width="6.097" />
        <path
            d="M834.911 160.065H244.061V151.406C244.061 135.809 256.709 123.161 272.305 123.161H806.665C822.263 123.161 834.911 135.809 834.911 151.406V160.065Z"
            fill="white" stroke="#E1E4E5" stroke-width="6.097" />
        <path
            d="M271.263 147.198C272.018 147.211 272.769 147.073 273.471 146.793C274.173 146.513 274.812 146.096 275.351 145.566C275.89 145.036 276.319 144.404 276.611 143.707C276.903 143.009 277.054 142.261 277.054 141.505C277.054 140.749 276.903 140.001 276.611 139.304C276.319 138.607 275.89 137.975 275.351 137.445C274.812 136.915 274.173 136.498 273.471 136.217C272.769 135.937 272.018 135.799 271.263 135.812C269.77 135.838 268.346 136.449 267.299 137.514C266.253 138.579 265.666 140.012 265.666 141.505C265.666 142.998 266.253 144.432 267.299 145.497C268.346 146.562 269.77 147.173 271.263 147.198ZM294.035 147.198C294.789 147.207 295.537 147.067 296.235 146.785C296.934 146.503 297.57 146.085 298.106 145.555C298.642 145.026 299.068 144.395 299.358 143.7C299.649 143.005 299.798 142.259 299.798 141.505C299.798 140.752 299.649 140.006 299.358 139.31C299.068 138.615 298.642 137.984 298.107 137.455C297.571 136.925 296.935 136.507 296.236 136.225C295.537 135.943 294.79 135.802 294.036 135.811C292.526 135.811 291.078 136.411 290.01 137.479C288.942 138.547 288.342 139.995 288.342 141.505C288.342 143.015 288.942 144.463 290.009 145.531C291.077 146.599 292.525 147.198 294.035 147.198ZM317.441 147.198C320.935 147.198 323.768 144.65 323.768 141.504C323.768 138.361 320.935 135.811 317.441 135.811C313.948 135.811 311.115 138.361 311.115 141.505C311.115 144.649 313.948 147.198 317.441 147.198Z"
            fill="#E1E4E5" />
        <path fill-rule="evenodd" clip-rule="evenodd"
            d="M531.713 249.919C535.069 252.145 539.78 254.855 545.295 256.888C545.405 256.928 545.517 256.966 545.634 257.012C561.107 262.606 575.149 260.142 586.243 249.889C590.714 245.756 594.616 242.017 598.056 238.718C612.303 225.056 618.804 218.824 631.064 217.218C641.407 215.862 649.229 224.724 657.508 234.105C665.418 243.068 673.591 252.326 684.848 252.353C689.539 253.614 704.935 255.258 724.075 231.076C739.061 212.144 748.281 213.022 755.016 216.548C757.493 217.845 760.547 217.038 762.094 214.711C763.916 211.968 762.92 208.264 759.983 206.77C755.426 204.451 750.133 202.88 743.917 203.764C734.591 205.088 725.268 211.784 715.418 224.231C699.698 244.09 688.748 241.958 687.642 241.675L686.784 241.241L685.362 241.311C678.854 241.622 672.499 234.427 665.776 226.807H665.775C656.406 216.19 645.789 204.159 629.621 206.276C613.773 208.352 605.474 216.308 590.41 230.754C587.004 234.02 583.141 237.724 578.747 241.786C570.829 249.102 561.039 250.766 549.648 246.731C549.465 246.668 549.287 246.602 549.11 246.537C544.984 245.016 541.361 243 538.648 241.265C538.35 241.024 538.028 240.815 537.687 240.64L537.426 240.465C536.888 240.102 536.29 239.837 535.66 239.682C531.571 237.907 526.921 236.862 521.594 237.619C512.267 238.943 502.944 245.639 493.095 258.086C477.374 277.946 466.424 275.813 465.318 275.53L464.461 275.096L463.038 275.166C456.53 275.477 450.175 268.282 443.452 260.663V260.662C434.082 250.045 423.465 238.014 407.297 240.132C391.449 242.207 383.15 250.164 368.086 264.608C364.68 267.875 360.818 271.579 356.423 275.641C348.505 282.958 338.715 284.621 327.324 280.586C327.141 280.523 326.964 280.457 326.786 280.392C322.005 278.63 317.9 276.203 315.102 274.319C313.984 273.566 312.628 273.247 311.291 273.424C309.954 273.601 308.728 274.261 307.844 275.28C305.679 277.777 306.174 281.61 308.916 283.458C312.295 285.739 317.191 288.613 322.971 290.743C323.008 290.757 323.044 290.769 323.082 290.782C323.156 290.809 323.232 290.836 323.31 290.868C338.784 296.46 352.825 293.997 363.919 283.744C368.39 279.611 372.292 275.872 375.733 272.573C389.98 258.911 396.48 252.679 408.74 251.073C419.084 249.717 426.905 258.579 435.184 267.96C443.095 276.924 451.267 286.181 462.524 286.208C467.215 287.469 482.611 289.112 501.752 264.93C516.024 246.9 525.066 246.839 531.713 249.919Z"
            fill="#FC4706" />
        <path
            d="M340.119 372.27C355.03 368.275 363.878 352.949 359.883 338.038C355.888 323.128 340.562 314.279 325.651 318.274C310.741 322.27 301.892 337.596 305.887 352.506C309.883 367.417 325.209 376.265 340.119 372.27Z"
            fill="url(#paint0_linear_1100_2)" />
        <path
            d="M338.051 364.556C348.702 361.702 355.022 350.755 352.168 340.105C349.314 329.455 338.367 323.135 327.717 325.988C317.067 328.842 310.747 339.789 313.601 350.439C316.454 361.089 327.401 367.409 338.051 364.556Z"
            fill="white" />
        <path
            d="M359.883 338.038C361.072 342.478 361.149 347.142 360.105 351.619C359.061 356.095 356.93 360.245 353.899 363.701C350.869 367.157 347.032 369.812 342.731 371.431C338.429 373.05 333.794 373.583 329.237 372.983C324.68 372.384 320.341 370.669 316.605 367.992C312.868 365.314 309.85 361.757 307.817 357.635C305.784 353.512 304.799 348.952 304.95 344.358C305.1 339.764 306.381 335.278 308.679 331.297L315.941 335.49C313.513 339.696 312.736 344.655 313.762 349.402C314.787 354.149 317.541 358.345 321.488 361.175C324.104 363.049 327.141 364.25 330.331 364.67C333.521 365.091 336.765 364.718 339.777 363.584C342.788 362.451 345.474 360.592 347.595 358.173C349.716 355.754 351.208 352.849 351.939 349.715C352.669 346.582 352.616 343.316 351.783 340.208L359.883 338.038Z"
            fill="#FC4706" />
        <path
            d="M458.587 338.038C454.592 323.127 439.265 314.279 424.355 318.274C409.444 322.269 400.596 337.596 404.591 352.506C408.586 367.417 423.913 376.265 438.823 372.27C453.734 368.275 462.582 352.948 458.587 338.038Z"
            fill="url(#paint1_linear_1100_2)" />
        <path
            d="M450.873 340.104C448.019 329.454 437.072 323.134 426.422 325.988C415.772 328.841 409.452 339.788 412.306 350.438C415.159 361.089 426.106 367.409 436.756 364.555C447.407 361.701 453.727 350.754 450.873 340.104Z"
            fill="white" />
        <path
            d="M424.355 318.275C428.794 317.084 433.459 317.007 437.936 318.051C442.412 319.095 446.562 321.227 450.017 324.258C453.473 327.289 456.129 331.125 457.748 335.426C459.367 339.728 459.9 344.363 459.299 348.92C458.699 353.477 456.984 357.815 454.307 361.552C451.63 365.288 448.073 368.306 443.951 370.34C439.828 372.372 435.268 373.357 430.675 373.206C426.081 373.056 421.595 371.775 417.614 369.477L421.807 362.216C424.593 363.824 427.733 364.72 430.949 364.825C434.164 364.93 437.356 364.24 440.241 362.817C443.127 361.394 445.617 359.282 447.491 356.667C449.365 354.052 450.565 351.016 450.986 347.826C451.621 343.011 450.442 338.131 447.678 334.137C444.914 330.143 440.762 327.32 436.032 326.218C432.898 325.487 429.633 325.541 426.525 326.374L424.355 318.275Z"
            fill="#FC4706" />
        <path
            d="M537.527 372.27C552.438 368.275 561.287 352.949 557.291 338.038C553.296 323.128 537.97 314.279 523.059 318.274C508.149 322.27 499.3 337.596 503.296 352.506C507.291 367.417 522.617 376.265 537.527 372.27Z"
            fill="url(#paint2_linear_1100_2)" />
        <path
            d="M535.462 364.556C546.112 361.702 552.432 350.755 549.578 340.105C546.725 329.455 535.778 323.135 525.127 325.988C514.477 328.842 508.157 339.789 511.011 350.439C513.865 361.089 524.811 367.409 535.462 364.556Z"
            fill="white" />
        <path
            d="M557.292 338.038C558.481 342.478 558.558 347.142 557.514 351.619C556.471 356.095 554.339 360.245 551.308 363.701C548.278 367.157 544.442 369.812 540.14 371.431C535.838 373.05 531.203 373.583 526.646 372.983C522.089 372.384 517.75 370.669 514.014 367.992C510.278 365.314 507.259 361.757 505.226 357.635C503.193 353.512 502.208 348.952 502.359 344.358C502.509 339.764 503.79 335.278 506.088 331.297L513.35 335.49C510.922 339.696 510.145 344.655 511.171 349.402C512.196 354.149 514.95 358.345 518.898 361.175C522.176 363.525 526.1 364.805 530.134 364.838C534.168 364.872 538.113 363.657 541.43 361.362C544.746 359.066 547.273 355.802 548.662 352.015C550.052 348.228 550.237 344.104 549.192 340.208L557.292 338.038Z"
            fill="#FC4706" />
        <path
            d="M549.246 390.564H316.588C309.775 390.564 304.253 396.087 304.253 402.899V476.914C304.253 483.726 309.775 489.248 316.588 489.248H549.246C556.058 489.248 561.58 483.726 561.58 476.914V402.899C561.58 396.087 556.058 390.564 549.246 390.564Z"
            fill="#FC4706" />
        <path
            d="M529.317 420.87H384.028C380.828 420.87 378.234 423.464 378.234 426.664V426.664C378.234 429.864 380.828 432.458 384.028 432.458H529.317C532.516 432.458 535.11 429.864 535.11 426.664V426.664C535.11 423.464 532.516 420.87 529.317 420.87Z"
            fill="white" />
        <path
            d="M474.054 446.719H384.028C380.828 446.719 378.234 449.313 378.234 452.512V452.513C378.234 455.713 380.828 458.306 384.028 458.306H474.054C477.253 458.306 479.847 455.713 479.847 452.513V452.512C479.847 449.313 477.253 446.719 474.054 446.719Z"
            fill="white" />
        <path
            d="M346.147 458.306C356.485 458.306 364.865 449.926 364.865 439.588C364.865 429.251 356.485 420.87 346.147 420.87C335.809 420.87 327.429 429.251 327.429 439.588C327.429 449.926 335.809 458.306 346.147 458.306Z"
            fill="white" />
        <path
            d="M638.26 284.163L621.201 301.206L612.913 292.943M675.223 276.007H725.644M675.616 301.021H758.997M638.26 342.531L621.201 359.574L612.913 351.31M675.223 334.375H725.644M675.616 359.389H758.997M758.996 417.755H675.223M758.996 475.75H675.223M758.997 392.741H675.616M758.997 450.737H675.616"
            stroke="#FC4706" stroke-width="14.844" stroke-linecap="round" stroke-linejoin="round" />
        <path
            d="M625.586 426.094C634.796 426.094 642.262 418.628 642.262 409.418C642.262 400.208 634.796 392.741 625.586 392.741C616.376 392.741 608.909 400.208 608.909 409.418C608.909 418.628 616.376 426.094 625.586 426.094ZM625.586 484.089C634.796 484.089 642.262 476.624 642.262 467.413C642.262 458.203 634.796 450.737 625.586 450.737C616.376 450.737 608.909 458.203 608.909 467.413C608.909 476.624 616.376 484.089 625.586 484.089Z"
            stroke="#FC4706" stroke-width="14.844" stroke-linecap="round" stroke-linejoin="round" />
        <path
            d="M394.318 244.831C394.318 252.87 400.734 259.386 408.649 259.386C416.563 259.386 422.979 252.87 422.979 244.831C422.979 236.793 416.563 230.276 408.649 230.276C400.734 230.276 394.318 236.793 394.318 244.831Z"
            fill="white" stroke="#FC4706" stroke-width="8.097" />
        <path
            d="M512.585 240.47C512.585 248.509 519.001 255.025 526.915 255.025C534.83 255.025 541.246 248.509 541.246 240.47C541.246 232.432 534.83 225.916 526.915 225.916C519.001 225.916 512.585 232.432 512.585 240.47Z"
            fill="white" stroke="#FC4706" stroke-width="8.097" />
        <path
            d="M616.751 209.109C616.751 217.147 623.167 223.664 631.081 223.664C638.996 223.664 645.412 217.147 645.412 209.109C645.412 201.07 638.996 194.554 631.081 194.554C623.167 194.554 616.751 201.07 616.751 209.109Z"
            fill="white" stroke="#FC4706" stroke-width="8.097" />
        <path
            d="M736.596 205.749C736.596 213.787 743.012 220.304 750.927 220.304C758.842 220.304 765.258 213.787 765.258 205.749C765.258 197.711 758.842 191.194 750.927 191.194C743.012 191.194 736.596 197.711 736.596 205.749Z"
            fill="white" stroke="#FC4706" stroke-width="8.097" />
        <path
            d="M308.733 284.153C308.733 292.191 315.149 298.707 323.064 298.707C330.978 298.707 337.395 292.191 337.395 284.153C337.395 276.114 330.978 269.598 323.064 269.598C315.149 269.598 308.733 276.114 308.733 284.153Z"
            fill="white" stroke="#FC4706" stroke-width="8.097" />
    </g>
    <path
        d="M472.84 529.368H489.64V591H472.84V529.368ZM507.016 553.944V565.944H480.04V553.944H507.016ZM509.8 529.368V541.368H478.792V529.368H509.8ZM510.664 579V591H478.792V579H510.664ZM541.789 555.576V543.48C541.789 542.776 541.597 542.264 541.213 541.944C540.829 541.56 540.221 541.368 539.389 541.368H521.533V529.368H544.477C549.597 529.368 553.213 530.456 555.325 532.632C557.501 534.808 558.589 537.688 558.589 541.272V557.208C558.589 560.792 557.501 563.672 555.325 565.848C553.213 568.024 549.597 569.112 544.477 569.112H521.533V557.688H539.389C540.221 557.688 540.829 557.528 541.213 557.208C541.597 556.824 541.789 556.28 541.789 555.576ZM515.965 529.368H532.765V591H515.965V529.368ZM530.845 562.392H547.261L561.661 591H543.613L530.845 562.392ZM591.102 556.728V543.48C591.102 542.776 590.91 542.264 590.526 541.944C590.142 541.56 589.534 541.368 588.702 541.368H570.846V529.368H593.79C598.91 529.368 602.526 530.456 604.638 532.632C606.814 534.808 607.902 537.688 607.902 541.272V558.936C607.902 562.52 606.814 565.4 604.638 567.576C602.526 569.752 598.91 570.84 593.79 570.84H570.846V558.84H588.702C589.534 558.84 590.142 558.68 590.526 558.36C590.91 557.976 591.102 557.432 591.102 556.728ZM565.278 529.368H582.078V591H565.278V529.368Z"
        fill="#232323" />
    <circle cx="75.5" cy="74.5" r="56.5" fill="#FC4706" />
    <path
        d="M55.6409 56.5402C51.9589 53.2079 46.1497 53.4625 43.8319 57.8545C41.9401 61.4392 40.6577 65.3371 40.0596 69.3896C39.0208 76.427 40.0923 83.6144 43.1384 90.043C46.1845 96.4715 51.0685 101.852 57.1727 105.505C63.2769 109.158 70.3273 110.919 77.4321 110.564C84.537 110.21 91.3773 107.757 97.088 103.515C102.799 99.2737 107.123 93.4339 109.515 86.7343C111.907 80.0347 112.258 72.7764 110.525 65.8771C109.527 61.9042 107.863 58.1532 105.624 54.7744C102.881 50.6346 97.0752 50.959 93.7428 54.641V54.641C90.4105 58.323 90.9907 64.036 92.6243 68.7257C92.7995 69.2284 92.9527 69.7401 93.0831 70.2593C93.9498 73.709 93.7742 77.3381 92.5783 80.6879C91.3824 84.0377 89.2201 86.9577 86.3647 89.0785C83.5094 91.1994 80.0892 92.4259 76.5368 92.603C72.9844 92.78 69.4592 91.8997 66.4071 90.0733C63.355 88.2469 60.913 85.5565 59.3899 82.3423C57.8669 79.128 57.3312 75.5343 57.8505 72.0156C57.9287 71.4859 58.0303 70.9616 58.1545 70.4439C59.3137 65.615 59.3229 59.8726 55.6409 56.5402V56.5402Z"
        fill="white" />
    <path
        d="M57.5893 54.5966C54.266 50.9065 54.5349 45.0978 58.9326 42.7908C63.5224 40.3831 68.6108 38.9789 73.8581 38.7184C79.1054 38.4579 84.3079 39.3512 89.1136 41.2925C93.7182 43.1526 94.5611 48.906 91.6196 52.9072V52.9072C88.6781 56.9084 82.9644 57.482 78.0428 56.8189C76.9579 56.6727 75.8558 56.6251 74.7498 56.68C73.6438 56.7349 72.5518 56.8914 71.4868 57.1443C66.6551 58.2917 60.9126 58.2868 57.5893 54.5966V54.5966Z"
        fill="#893405" />
    <defs>
        <linearGradient id="paint0_linear_1100_2" x1="349.382" y1="402.234" x2="309.399"
            y2="259.675" gradientUnits="userSpaceOnUse">
            <stop stop-color="white" />
            <stop offset="1" stop-color="#EEEEEE" />
        </linearGradient>
        <linearGradient id="paint1_linear_1100_2" x1="488.55" y1="328.775" x2="345.992" y2="368.759"
            gradientUnits="userSpaceOnUse">
            <stop stop-color="white" />
            <stop offset="1" stop-color="#EEEEEE" />
        </linearGradient>
        <linearGradient id="paint2_linear_1100_2" x1="546.79" y1="402.234" x2="506.808" y2="259.675"
            gradientUnits="userSpaceOnUse">
            <stop stop-color="white" />
            <stop offset="1" stop-color="#EEEEEE" />
        </linearGradient>
        <clipPath id="clip0_1100_2">
            <rect width="747" height="498" fill="white" transform="translate(166 70)" />
        </clipPath>
    </defs>
</svg>